<?xml version="1.0" encoding="UTF-8"?>
<svg width="29px" height="29px" viewBox="0 0 29 29" version="1.1" xmlns="http://www.w3.org/2000/svg" xmlns:xlink="http://www.w3.org/1999/xlink">
    <!-- Generator: Sketch 49.3 (51167) - http://www.bohemiancoding.com/sketch -->
    <title>svg5</title>
    <desc>Created with Sketch.</desc>
    <defs>
        <polygon id="path-1" points="1.91780822e-05 0.0072 13.9405479 0.0072 13.9405479 12.99994 1.91780822e-05 12.99994"></polygon>
    </defs>
    <g id="svg5" stroke="none" stroke-width="1" fill="none" fill-rule="evenodd">
        <g id="Page-1" transform="translate(8.000000, 8.000000)">
            <g id="Group-3">
                <mask id="mask-2" fill="white">
                    <use xlink:href="#path-1"></use>
                </mask>
                <g id="Clip-2"></g>
                <path d="M6.97029315,0.80714 C6.73210137,0.80714 6.51021096,0.94074 6.39111507,1.15594 L0.855936986,11.15374 C0.736841096,11.36874 0.736841096,11.63614 0.856128767,11.85114 C0.975224658,12.06614 1.19711507,12.19994 1.43530685,12.19994 L12.5054712,12.19994 C12.7434712,12.19994 12.9653616,12.06614 13.0846493,11.85114 C13.2035534,11.63614 13.2035534,11.36874 13.0844575,11.15354 L7.54947123,1.15594 C7.43037534,0.94074 7.20848493,0.80714 6.97029315,0.80714 M12.5054712,12.99994 L1.43530685,12.99994 C0.924019178,12.99994 0.447443836,12.71314 0.191608219,12.25114 C-0.0638438356,11.78934 -0.0638438356,11.21554 0.191608219,10.75374 L5.7267863,0.75594 C5.98243014,0.29414 6.4588137,0.00714 6.97029315,0.00714 C7.48158082,0.00714 7.95796438,0.29414 8.2138,0.75594 L13.7489781,10.75374 C14.0044301,11.21554 14.0044301,11.78934 13.7489781,12.25114 C13.4931425,12.71314 13.0165671,12.99994 12.5054712,12.99994" id="Fill-1" fill="#F9ED32" mask="url(#mask-2)"></path>
            </g>
            <g id="Group-8" transform="translate(6.416667, 4.136364)" fill="#F9ED32">
                <path d="M1.07738333,4.19590758 C1.07738333,4.50731667 0.863883333,4.75943788 0.600383333,4.75943788 C0.336883333,4.75943788 0.123383333,4.50731667 0.123383333,4.19590758 L0.123383333,0.675862121 C0.123383333,0.36465 0.336883333,0.112134848 0.600383333,0.112134848 C0.863883333,0.112134848 1.07738333,0.36465 1.07738333,0.675862121 L1.07738333,4.19590758 Z" id="Fill-4"></path>
                <path d="M1.15875,5.79762576 C1.15875,6.14311061 0.921916667,6.42320152 0.629416667,6.42320152 C0.337083333,6.42320152 0.100083333,6.14311061 0.100083333,5.79762576 C0.100083333,5.45214091 0.337083333,5.17205 0.629416667,5.17205 C0.921916667,5.17205 1.15875,5.45214091 1.15875,5.79762576" id="Fill-6"></path>
            </g>
        </g>
    </g>
</svg>