<?xml version="1.0" encoding="UTF-8"?>
<svg width="307px" height="307px" viewBox="0 0 307 307" version="1.1" xmlns="http://www.w3.org/2000/svg" xmlns:xlink="http://www.w3.org/1999/xlink">
    <!-- Generator: Sketch 49.3 (51167) - http://www.bohemiancoding.com/sketch -->
    <title>svg1</title>
    <desc>Created with Sketch.</desc>
    <defs>
        <polygon id="path-1" points="0 0.42255042 145.19976 0.42255042 145.19976 145.317508 0 145.317508"></polygon>
    </defs>
    <g id="svg1" stroke="none" stroke-width="1" fill="none" fill-rule="evenodd">
        <g id="Page-1-Copy" transform="translate(75.000000, 54.000000)">
            <path d="M73.3996,7.00309664 C73.3156,7.00309664 73.2308,7.00628992 73.1452,7.00628992 L73.1452,67.2825924 C73.2308,67.2817941 73.3156,67.2762059 73.3996,67.2762059 C90.5212,67.2762059 104.3996,81.1262479 104.3996,98.2110798 C104.3996,115.295912 90.5212,129.145954 73.3996,129.145954 C67.9124,129.145954 62.762,127.717761 58.29,125.221416 L30.6524,178.84213 C43.4092,185.591122 57.9556,189.419063 73.3996,189.419063 C123.8796,189.419063 164.7996,148.584231 164.7996,98.2110798 C164.7996,47.8379286 123.8796,7.00309664 73.3996,7.00309664" id="Fill-1" fill="#FFFFFF" opacity="0.15"></path>
            <polygon id="Fill-3" fill="#FFFFFF" points="24.19416 189.419063 24.90056 189.795071 58.64296 125.409021 57.93656 125.033013"></polygon>
            <polygon id="Fill-4" fill="#FFFFFF" points="97.48584 117.692466 171.35944 173.372046 171.84184 172.734189 97.96824 117.055408"></polygon>
            <polygon id="Fill-5" fill="#FFFFFF" points="9.2304 -7.98319328e-05 8.5584 0.435004202 55.428 72.5783235 56.0992 72.1432395"></polygon>
            <g id="Group-8" transform="translate(0.000000, 23.744412)">
                <mask id="mask-2" fill="white">
                    <use xlink:href="#path-1"></use>
                </mask>
                <g id="Clip-7"></g>
                <path d="M123.39336,123.46192 L118.95416,119.004903 L118.38536,119.566122 L122.82136,124.020744 C116.44296,130.259609 108.90936,135.324945 100.57016,138.858307 L98.12776,133.030576 L97.38856,133.33713 L99.83096,139.161668 C91.54456,142.563307 82.48856,144.462508 72.99976,144.514399 L72.99976,136.801836 L72.19976,136.801836 L72.19976,144.514399 C62.44216,144.460912 53.13896,142.458727 44.66376,138.873475 L47.14776,133.068895 L46.41256,132.754357 L43.93096,138.55255 C35.76696,134.99045 28.39016,129.957845 22.13896,123.787634 L26.57496,119.347382 L26.00936,118.782971 L21.57336,123.223223 C15.19976,116.792761 10.03256,109.170408 6.44696,100.721794 L12.27656,98.294105 L11.96936,97.5572563 L6.14376,99.9825504 C2.75096,91.7311218 0.85736,82.714105 0.80456,73.2691891 L8.53336,73.2691891 L8.53336,72.4708697 L0.80456,72.4708697 C0.85656,63.2462899 2.66056,54.4288529 5.90616,46.3362899 L11.96456,48.8070882 L12.26456,48.0678445 L6.20936,45.5978445 C9.84856,36.8083487 15.18696,28.8922143 21.82056,22.2637689 L26.38776,26.8956176 L26.95656,26.3336008 L22.39256,21.7049454 C28.77016,15.4716681 36.30296,10.4079286 44.63976,6.8777605 L47.13656,12.9154496 L47.87496,12.6096933 L45.38056,6.57360084 C53.66216,3.17515546 62.71496,1.27755042 72.19976,1.22565966 L72.19976,8.93822269 L72.99976,8.93822269 L72.99976,1.22565966 C82.75736,1.27914706 92.06056,3.28133193 100.53576,6.86658403 L97.93256,12.8675504 L98.66856,13.1812899 L101.26856,7.1875084 C109.43256,10.7496092 116.80936,15.781416 123.05896,21.9508277 L118.43416,26.5355756 L118.99976,27.0999874 L123.62456,22.5152395 C129.99976,28.9449034 135.16696,36.5680546 138.75256,45.0174664 L132.68536,47.5098193 L132.99336,48.2466681 L139.05576,45.7567101 C142.44936,54.008937 144.34376,63.0259538 144.39496,72.4708697 L136.66696,72.4708697 L136.66696,73.2691891 L144.39496,73.2691891 C144.34376,82.4841891 142.54376,91.2912479 139.30456,99.3782227 L133.43256,97.0167941 L133.13256,97.7568361 L139.00136,100.116668 C135.36376,108.909357 130.02616,116.830282 123.39336,123.46192 M72.59976,0.42255042 C32.56776,0.42255042 -0.000239999986,32.9221303 -0.000239999986,72.8700294 C-0.000239999986,112.817929 32.56776,145.317508 72.59976,145.317508 C112.63256,145.317508 145.19976,112.817929 145.19976,72.8700294 C145.19976,32.9221303 112.63256,0.42255042 72.59976,0.42255042" id="Fill-6" fill="#FFFFFF" mask="url(#mask-2)"></path>
            </g>
        </g>
    </g>
</svg>