<?xml version="1.0" encoding="UTF-8"?>
<svg width="209px" height="209px" viewBox="0 0 209 209" version="1.1" xmlns="http://www.w3.org/2000/svg" xmlns:xlink="http://www.w3.org/1999/xlink">
    <!-- Generator: Sketch 49.3 (51167) - http://www.bohemiancoding.com/sketch -->
    <title>svg3</title>
    <desc>Created with Sketch.</desc>
    <defs></defs>
    <g id="svg3" stroke="none" stroke-width="1" fill="none" fill-rule="evenodd">
        <path d="M94.6081261,65.3470699 L94.4649154,64.9529675 C94.4649154,64.9529675 95.3594139,64.0561427 96.3988281,63.9850564 C97.4388106,63.9134014 97.8684427,64.3075039 97.8684427,64.3075039 L98.1190614,64.845485 L98.0110851,65.2748462 C98.0110851,65.2748462 97.0080419,64.7016063 96.3988281,64.7016063 C95.7901826,64.7016063 95.3241796,65.0240538 95.0371899,65.2031912 C94.7513368,65.3828974 94.6081261,65.3470699 94.6081261,65.3470699 Z M72.4655923,75.6011261 C72.0359602,75.6011261 70.2083189,75.6727811 69.5991051,75.7802635 C68.9898913,75.8871773 66.9121996,76.3546408 66.9121996,76.3546408 C66.9121996,76.3546408 68.9546569,75.2769726 69.2410783,75.1353686 C69.5274997,74.99149 70.4589376,75.4572474 70.9613116,75.4572474 C71.4625491,75.4572474 72.2149735,75.3133687 72.2149735,75.3133687 C72.2149735,75.3133687 73.2538194,75.0989725 73.7198225,75.1711961 C74.1858256,75.2422824 75.7259089,75.3503336 76.048133,75.3503336 C76.0776844,75.3503336 76.1117822,75.3491962 76.1458799,75.3480588 C76.6772371,75.3076818 77.0511762,75.2781099 77.0511762,75.2781099 C77.0511762,75.2781099 76.4902676,75.3378224 76.1458799,75.3480588 C74.8973327,75.4435988 72.7673577,75.6011261 72.4655923,75.6011261 Z M69.2410783,73.4861666 C69.5633024,73.2348054 70.996546,72.4096357 71.2835357,72.3743769 C71.5699571,72.3385494 73.0032007,72.5176868 73.7556252,73.0556679 C73.7556252,73.0556679 74.1858256,73.1625817 74.4716787,73.3070291 C74.7586684,73.4492017 76.9443364,74.8487487 76.9443364,74.8487487 L74.5080496,73.808614 C74.5080496,73.808614 73.6124145,73.4492017 73.0032007,73.3781154 C72.3945552,73.3058917 70.9249406,73.6289078 70.6385192,73.7358216 C70.3520978,73.8438728 70.0656764,73.9883202 69.7786867,73.6647353 C69.4916971,73.3422879 68.918286,73.7358216 69.2410783,73.4861666 Z M58.3496773,115.254769 C58.3496773,115.254769 57.1306814,115.757491 56.1634409,116.438213 C55.1962004,117.118936 54.7665683,116.689574 54.7665683,116.689574 C54.7665683,116.689574 54.4085415,116.04468 54.0499465,115.181976 C53.6913514,114.323254 51.5062516,112.674052 51.5062516,112.674052 C51.5062516,112.674052 51.6846967,112.171898 52.0796627,111.883003 C52.4729239,111.596952 54.3005652,110.951489 54.3005652,110.951489 C54.3005652,110.951489 55.7696115,112.314071 56.9158654,112.924844 C58.0621193,113.53448 58.9225201,115.147286 58.9225201,115.147286 L58.3496773,115.254769 Z M176.637738,115.79275 C176.314945,115.523759 174.540724,112.298147 173.735448,111.274505 C172.929035,110.253137 171.262222,109.124855 170.563785,108.10235 C169.865349,107.080982 168.898109,105.413013 168.038276,104.713524 C167.177875,104.014035 166.319179,103.261089 165.727583,103.261089 C165.135986,103.261089 164.222166,102.293178 163.577717,101.809791 C162.932701,101.326973 161.105628,101.056845 160.5146,101.056845 C159.923571,101.056845 159.815595,100.9505 159.654199,100.788423 C159.493371,100.627483 154.011584,97.8835524 150.518834,96.2707465 C147.024947,94.6562345 142.456412,92.2910512 139.930903,91.806527 C137.404825,91.3225715 136.706389,91.4306227 136.706389,91.4306227 C136.706389,91.4306227 136.168781,90.462143 135.469776,89.7086282 C134.77134,88.9562509 133.643271,88.311356 133.052243,88.687829 C132.460078,89.064302 132.084434,89.1177589 131.976458,89.3321552 C131.86905,89.5476889 131.38543,89.9787562 131.224602,89.5476889 C131.063205,89.1177589 130.740981,88.5251836 129.773173,87.9883399 C128.805932,87.4509274 123.754345,85.1909519 122.0881,84.6541082 C120.422423,84.1161271 119.078402,83.5246891 118.325978,82.7182861 C117.574121,81.9113145 116.660301,81.4808159 115.478244,81.6423239 C114.295619,81.8032633 114.510435,82.0722539 113.650603,81.8572889 C112.79077,81.6423239 111.984926,80.9434035 111.446749,80.9434035 C110.909709,80.9434035 110.211273,80.4054224 108.97466,80.0829749 C107.739183,79.7605275 102.741016,77.9850761 101.772639,77.6086031 C100.805967,77.2326988 99.8927146,77.2867243 98.5486935,77.2326988 C97.2052407,77.1775358 96.9364365,77.2326988 96.3454082,76.6947177 C95.75438,76.1573053 95.8077998,76.1573053 96.3988281,75.8342891 C96.9898564,75.5107043 98.2264694,75.3503336 98.2264694,74.543362 C98.2264694,73.7358216 98.1730496,70.0791425 98.4947053,69.2733082 C98.8174977,68.4657679 99.19371,66.7989364 99.1397218,66.637997 C99.0863019,66.4759203 98.2798893,65.6695173 98.2798893,65.6695173 C98.2798893,65.6695173 98.3872973,64.9700282 98.3872973,64.7556319 C98.3872973,64.5400982 98.0650732,64.3251333 98.0650732,64.3251333 C98.0650732,64.3251333 98.0110851,63.7871522 98.2264694,63.4647047 C98.4418538,63.1416886 98.6026817,62.1470491 98.3071675,61.7705761 C98.0110851,61.3941031 97.6621511,61.44756 97.7428492,61.7165505 C97.8235473,61.9861098 97.8502572,62.1737776 97.7428492,62.4427681 C97.6354411,62.7117587 97.3672052,63.0615033 97.2859388,62.8192412 C97.2052407,62.5769791 97.3126488,62.2460013 97.0972644,61.9770107 C96.8824484,61.7080202 96.7574232,61.3941031 96.7574232,61.2058666 C96.7574232,61.01763 96.2380002,60.9101476 96.103314,61.0983841 C95.969196,61.2866206 96.1305922,61.5556111 96.210722,61.7165505 C96.2914201,61.8780586 96.3988281,62.1470491 96.3988281,62.3352856 L96.3988281,62.7117587 C96.3988281,62.7117587 96.1573021,62.7925127 96.0226159,62.5769791 C95.8884979,62.3620141 95.9419178,62.1470491 95.72767,61.9320842 C95.512854,61.7165505 95.5929838,61.4924865 95.5929838,61.223496 C95.5929838,60.9550741 94.9485356,61.01763 94.9485356,61.44756 C94.9485356,61.8780586 95.1093635,62.1470491 95.1360734,62.2818288 C95.1627834,62.4160397 95.0735608,63.1962829 94.98377,63.1780848 C94.8524935,63.1513563 94.6797314,62.8726981 94.6524532,62.6037075 C94.6257433,62.3352856 94.5177669,62.2903591 94.356939,61.9411832 C94.1955429,61.5914386 93.8466088,61.9588126 93.8733188,62.200506 C93.9000287,62.4427681 94.0341467,63.1155288 94.0341467,63.3031967 C94.0341467,63.4920019 93.6136073,64.1192674 93.3180932,64.0925389 C93.022579,64.0658105 92.9799568,63.8679062 93.0669061,63.5005322 C93.156697,63.1240592 92.7446821,62.9540208 92.4491679,63.0888004 C92.1536538,63.2230113 92.6730767,63.4021488 92.4042725,63.9668583 C92.1354683,64.5315679 92.529866,64.7192357 92.7446821,64.8813125 C92.9600664,65.0428205 92.8793683,65.5080093 93.4703966,65.2930443 C94.0608566,65.0780793 94.2489627,65.0240538 94.2489627,65.0240538 C94.2489627,65.0240538 94.3035192,65.2657472 94.3035192,65.3737983 C94.3035192,65.4812808 94.1415547,65.4539837 94.0341467,65.5620348 C93.9267386,65.6695173 93.9540169,67.9277868 93.8466088,68.3048285 C93.7386325,68.6813016 93.3896985,68.8160812 93.3896985,69.3000367 C93.3896985,69.7839922 93.4164084,70.5096411 93.0936161,70.482344 C92.7719603,70.4556155 89.6815643,71.5315777 87.7732249,71.4235266 C85.8654538,71.3166128 85.1135976,71.5856033 84.3606048,71.4235266 C83.6087487,71.2631559 82.0766215,70.563098 81.4321733,70.5096411 C80.7865886,70.4556155 73.8539404,70.9401397 73.2362022,70.9401397 C72.6178957,70.9401397 72.1075655,71.1551047 71.7313533,71.4235266 C71.3545727,71.6930858 68.398863,73.7636875 67.8885328,74.3824226 C67.3782026,75.000589 66.9752805,75.8342891 66.6252099,75.6727811 C66.2762759,75.5107043 66.0881697,75.1620971 65.9807617,74.9204037 C65.8733537,74.6781416 65.7750384,73.8347738 65.0493239,73.7005628 C64.3236093,73.5663519 64.261665,73.4133742 63.4370669,73.2712016 C62.9011634,73.1773677 61.9504034,72.8048755 61.3588068,72.8048755 C60.7677786,72.8048755 60.0221736,73.1881728 59.5675365,73.2348054 C58.6895185,73.3246585 58.3218307,73.0374698 57.8654887,73.0374698 C57.4085784,73.0374698 56.7726547,73.1273229 56.1276382,73.3963135 C55.4831901,73.6647353 54.8023709,74.247643 54.5335667,74.543362 C54.2647625,74.8385123 52.6519372,77.2054016 53.190114,79.9754924 C53.7271541,82.7444459 55.5013755,83.954619 56.9522363,84.2776351 C58.4030971,84.6000826 60.042064,83.6316029 60.6870805,83.4979606 C61.3320969,83.363181 62.0311015,83.5246891 62.4067455,83.3899095 C62.7829577,83.2551298 63.2938562,83.4177753 63.4006959,83.1482161 C63.5081039,82.8792255 62.8369459,84.4658717 62.5414317,84.6808366 C62.2459176,84.8958016 62.0748603,85.0664087 62.0748603,85.0664087 C62.0748603,85.0664087 60.319961,87.6835218 60.3915663,88.5803465 C60.4631717,89.4766026 61.2155961,90.3364624 61.9322179,91.0541497 C62.6488397,91.7712682 63.9388726,92.9541442 63.9388726,93.5273841 C63.9388726,94.1011927 64.4043074,94.7824838 64.4043074,94.7824838 C64.4043074,94.7824838 64.5475181,96.9690983 64.369073,97.4712519 C64.1894914,97.9734055 64.369073,100.30333 64.369073,100.840742 C64.369073,101.38043 64.4764811,101.738136 63.6876856,102.346634 C62.8994585,102.955702 60.2125529,105.502866 58.9946937,106.57826 C57.7762662,107.654222 54.9455816,109.841405 54.4437759,110.09106 C53.9425384,110.34299 53.9425384,110.666575 54.0141438,110.77292 C54.0863174,110.880971 51.577857,111.811917 51.1840276,112.242984 C50.7896298,112.674052 51.1118539,112.782103 50.6816535,112.782103 C50.2525897,112.782103 47.88734,112.637656 47.3139289,112.996499 C46.7405178,113.353637 45.3788795,114.716788 44.9134448,114.78958 C44.44801,114.860666 43.6597828,114.680391 42.9783954,114.932321 C42.2981446,115.181976 41.6980236,115.721663 41.7696289,116.221542 C41.840666,116.724265 42.3873671,116.65261 43.3011878,116.409779 C44.022356,116.219836 44.3229848,116.356891 44.5378008,116.356891 C44.7520486,116.356891 45.6448423,115.784788 46.0153715,115.900232 C46.3643055,116.007146 46.5438872,116.276137 46.0420815,116.707204 C45.540844,117.136565 44.662826,117.584693 44.4838127,118.086847 C44.3047993,118.589 43.8745989,118.409863 43.0863717,118.55431 C42.2981446,118.697052 41.5099174,119.16224 40.2914899,118.912585 C39.0730624,118.660087 38.8588146,119.233895 39.0730624,119.593308 C39.2884467,119.952151 40.7932956,120.09603 40.6142823,120.238202 C40.4352689,120.38265 39.6834127,119.807135 39.2884467,120.38265 C38.8946173,120.956458 39.2884467,120.740925 39.7544498,121.42051 C40.2198845,122.102938 40.1840819,122.498178 40.9001354,122.498178 C41.6173255,122.498178 43.1221744,122.962229 43.7671909,123.071418 C44.4122073,123.177763 44.8060367,123.464952 45.3442135,122.998626 C45.8806853,122.532868 46.8126914,122.532868 48.1743297,121.349423 C49.5353996,120.167116 50.6458508,118.481518 51.9000811,117.584693 C53.1543113,116.689574 54.0499465,116.294335 54.1573545,116.294335 C54.2647625,116.294335 54.8381736,117.118936 55.1603977,117.118936 C55.4831901,117.118936 55.8412168,116.976194 56.880631,116.258507 C57.9189086,115.54082 58.1700956,115.613612 58.1700956,115.613612 C58.1700956,115.613612 59.4959311,116.509868 60.642185,115.39751 C61.7890072,114.286858 65.7653774,110.378249 67.1275839,109.124855 C68.4886539,107.868618 69.9577001,107.404567 71.2835357,105.502866 C72.6093713,103.602872 72.3229499,102.492219 72.2865789,101.773963 C72.2507762,101.056845 72.2507762,98.9413165 72.3945552,97.1840632 C72.5377659,95.4279474 72.4655923,92.8102656 72.4655923,92.8102656 C72.4655923,92.8102656 73.5050064,93.3488153 74.5438523,92.8102656 C75.5826982,92.2722845 76.8727311,92.2370257 77.8399716,92.3092493 C78.8077804,92.3803356 80.4558401,93.0974542 81.0644855,93.636004 C81.673131,94.1734164 84.9340159,97.2932518 85.507427,97.8306642 C86.0802698,98.3675079 88.0869245,100.590519 88.3023089,101.164896 C88.5171249,101.738136 89.2695494,102.025324 89.3769574,101.917273 C89.4843655,101.809791 89.0547334,102.92158 88.6597673,103.387338 C88.2659379,103.853095 88.3375433,107.725877 88.588162,108.478254 C88.839349,109.232338 89.6815643,111.113565 89.7349842,113.96441 C89.7889723,116.815255 90.7562129,119.072956 90.8096327,119.719557 C90.8636209,120.364452 91.293253,123.590632 91.400661,124.290121 C91.5086373,124.989611 92.5832859,126.441477 93.6579344,126.386883 C94.7331513,126.333995 96.6676323,126.333995 97.3126488,126.602416 C97.9582335,126.870838 99.408526,126.870838 100.591151,127.139829 C101.772639,127.409388 108.760412,128.377868 109.942469,128.162334 C111.125093,127.9468 113.812567,127.192717 118.487374,128.539376 C123.163317,129.88376 124.077137,129.237159 124.077137,129.237159 C124.077137,129.237159 125.151786,127.462845 125.366602,125.956384 C125.581418,124.451061 126.333843,123.376236 126.387831,123.214159 C126.441251,123.053788 130.149385,122.245679 131.224602,122.890574 C132.29925,123.536607 133.052243,124.0217 134.2343,124.559112 C135.416356,125.095956 138.426054,126.655873 138.586882,126.924295 C138.748846,127.192717 139.984323,128.752635 140.414523,130.636137 C140.844155,132.517365 142.564389,134.400868 143.048009,134.506644 C143.531061,134.614695 143.585049,134.400868 143.585049,134.400868 C143.585049,134.400868 143.531061,134.992306 144.015249,134.992306 C144.49887,134.992306 144.44545,135.100357 144.44545,134.506644 C144.44545,133.916912 144.49887,126.494934 144.391462,125.311489 C144.283485,124.129751 143.799865,122.516376 142.402992,121.224312 C141.005551,119.933384 139.822927,118.428061 139.822927,118.428061 C139.822927,118.428061 140.575919,117.78146 140.736179,117.78146 C140.898143,117.78146 140.145719,114.394909 139.393295,113.317809 C138.64087,112.242984 138.264658,112.298147 138.264658,112.298147 C138.264658,112.298147 137.67363,112.511975 137.136589,112.943042 L136.598981,113.372404 C136.598981,113.372404 135.308948,113.264352 134.663932,113.640825 C134.018915,114.018436 132.621474,115.308226 132.24583,115.577216 C131.86905,115.845069 129.827161,116.65261 128.644536,116.65261 C127.462479,116.65261 127.085699,116.707204 127.085699,116.707204 C127.085699,116.707204 126.710055,116.49167 126.441251,116.49167 C126.172446,116.49167 121.013451,116.599153 120.314447,116.49167 C119.616579,116.384188 119.508602,116.115197 118.863586,116.115197 C118.21857,116.115197 117.574121,115.415708 116.445485,115.523759 C115.316848,115.631242 110.211273,115.523759 109.45828,115.523759 C108.706424,115.523759 106.771375,115.577216 105.858122,115.523759 C104.944302,115.469165 104.406693,115.415708 104.191877,115.469165 C103.976493,115.523759 104.353273,114.663331 104.084469,114.447797 C103.815665,114.232263 104.890882,114.179375 105.427922,113.640825 C105.96553,113.103413 105.96553,108.10235 107.094167,105.144591 C108.222804,102.187401 107.792603,100.680372 108.652436,99.6584351 C109.512268,98.6364985 110.587485,98.0990861 111.285921,98.0990861 C111.984926,98.0990861 113.650603,98.4749904 114.295619,98.4749904 C114.940636,98.4749904 117.143921,99.1198853 117.574121,99.1198853 C118.003753,99.1198853 119.347206,99.9274256 120.583819,99.9808825 C121.819296,100.035477 123.754345,99.711892 124.452781,99.7664862 C125.151786,99.8199431 126.656067,100.464269 128.107496,100.73326 C129.558356,101.003957 129.34354,100.572321 130.418757,100.627483 C131.492838,100.680372 132.729451,100.788423 133.105095,100.41195 C133.481875,100.035477 136.115361,100.087796 136.438153,100.195847 C136.759809,100.30333 137.297417,101.326973 138.049842,101.970161 C138.802266,102.616762 143.424221,104.821575 144.983058,105.627978 C146.540759,106.433812 151.915138,109.016804 152.39819,109.715156 C152.882947,110.414076 153.796199,109.660561 154.279819,109.124855 C154.764008,108.586305 157.880546,105.197479 158.257326,104.983652 C158.63297,104.766981 158.793798,105.413013 158.793798,105.789486 C158.793798,106.16539 160.460043,108.047187 161.320444,108.748382 C162.180276,109.446165 163.094097,109.660561 163.094097,109.660561 C163.094097,109.660561 164.759774,110.253137 165.028578,111.86708 C165.297382,113.479886 167.017047,115.845069 168.736712,117.028514 C170.456377,118.212527 172.821627,119.664963 174.002547,119.55748 C175.18574,119.449429 176.852554,117.621089 176.959962,117.299779 C177.066801,116.976194 176.959962,116.062309 176.637738,115.79275 Z" id="Fill-1-Copy" fill="#D0021B"></path>
    </g>
</svg>