<?xml version="1.0" encoding="UTF-8"?>
<svg width="307px" height="307px" viewBox="0 0 307 307" version="1.1" xmlns="http://www.w3.org/2000/svg" xmlns:xlink="http://www.w3.org/1999/xlink">
    <!-- Generator: Sketch 49.3 (51167) - http://www.bohemiancoding.com/sketch -->
    <title>svg2</title>
    <desc>Created with Sketch.</desc>
    <defs></defs>
    <g id="svg2" stroke="none" stroke-width="1" fill="none" fill-rule="evenodd">
        <g id="Group-2-Copy" transform="translate(90.000000, 39.000000)">
            <polygon id="Path-3" fill="#000000" points="25.9994564 95.6456573 29.819382 30.3934052 47.1711472 22.7925934 65.5124281 33.6749987 78.0575711 92.8013284"></polygon>
            <path d="M128.505231,38.8304362 C128.505231,38.8304362 126.236135,40.0810017 125.100957,40.0810017 C123.967039,40.0810017 121.938853,40.6760897 121.938853,40.6760897 C121.938853,40.6760897 119.908145,39.7236973 120.326899,37.8176543 C120.744393,35.9116113 122.202467,32.7084526 123.191334,32.338567 C123.66937,32.1599148 125.46043,31.8026104 125.46043,31.8026104 C125.46043,31.8026104 125.282585,36.5066993 126.95382,37.5194812 C128.622533,38.5322631 128.505231,38.8304362 128.505231,38.8304362 Z M70.7069764,87.5483918 C70.049834,87.8453067 68.37986,87.5483918 66.8284491,86.8941724 C65.2732543,86.2374368 64.3197041,86.1179159 63.1239826,86.5934831 C61.9307836,87.0715665 60.6757805,87.1898292 58.230101,87.4880023 C55.7818989,87.7861754 54.707263,88.7373097 52.9742235,88.9763514 C51.2437066,89.2153931 47.8987133,89.2745244 47.8987133,89.2745244 C47.8987133,89.2745244 49.2735409,87.8453067 49.57121,87.3093501 C49.8688791,86.7733934 49.750316,79.804699 49.750316,79.804699 C49.750316,79.804699 50.5260214,59.6157406 50.4654786,56.7573052 C50.4074583,53.8976117 51.0040578,44.4290443 51.1844251,43.058958 C51.3622697,41.6888716 51.8403061,40.4974375 51.6019186,39.3663928 C51.3622697,38.2340901 51.2437066,36.5670888 51.2437066,36.5670888 C51.2437066,36.5670888 53.3336968,35.1970024 53.6326272,34.3641308 C53.9302963,33.5300011 52.6160116,32.1599148 52.6160116,32.1599148 C52.6160116,32.1599148 53.0347664,31.3849165 53.3929783,31.3849165 C53.7524516,31.3849165 54.8258261,31.0880015 55.3631441,31.5044373 C55.900462,31.9221312 57.3333098,33.7086534 58.3486641,33.9464369 C59.3640184,34.1854786 59.6629488,33.9464369 59.6629488,34.7201772 C59.6629488,35.4951755 57.9311706,37.4603498 57.8706277,38.4127423 C57.8113462,39.3663928 58.2881212,50.1459152 57.9311706,53.3025237 C57.5729586,56.4603903 59.3034755,59.6157406 60.4386542,61.2236106 C61.573833,62.8314805 67.4843301,73.7305237 67.0668366,74.1482176 C66.6480818,74.5633953 66.5282574,76.8280008 67.1248569,78.5553916 C67.7214564,80.2815242 71.3666413,87.2489606 70.7069764,87.5483918 Z M47.1242692,40.6169583 C46.2287393,42.5230013 43.241958,54.4348264 42.8824847,56.3987427 C42.5255341,58.3651751 40.0180504,71.0494824 39.9587689,73.6110028 C39.898226,76.1725233 38.8235902,84.2131311 39.1225206,85.7618696 C39.4227123,87.3093501 41.2125107,90.2873064 39.71912,90.2873064 C38.228252,90.2873064 36.9114447,90.5250899 36.077719,89.809223 C35.2414707,89.0971303 35.5996826,89.3349139 34.4657652,89.9287438 C33.3305865,90.5250899 32.1966691,88.0830903 31.3616821,86.8941724 C30.5254337,85.700222 30.76256,75.8139608 30.76256,73.8487864 C30.76256,71.8836121 31.540788,62.5936969 31.9570202,60.7467853 C32.3732524,58.8998737 31.1825761,56.6969157 31.2418576,55.3280875 C31.3011392,53.9580012 31.7791756,49.5495691 31.4209636,46.5124814 C31.064013,43.4753938 34.5855896,36.8048724 35.6614868,34.0659578 C36.7348613,31.3257851 40.8530374,27.336305 41.8103715,26.7990902 C42.7651829,26.2631336 44.3178552,26.1448709 44.9144546,25.0138262 C45.5110541,23.8815235 48.1371009,22.213264 48.1371009,22.213264 C48.1371009,22.213264 47.5203204,22.8096102 47.3613954,24.8741755 C47.2024704,26.9387409 50.3872774,30.1154792 50.3872774,30.1154792 C50.3872774,30.1154792 49.3328225,30.6111762 48.7967658,31.0288701 C48.2581866,31.4453059 47.4799585,33.2330862 47.599783,34.0659578 C47.7196074,34.8988294 48.736223,37.8780438 48.736223,37.8780438 C48.736223,37.8780438 48.0185378,38.7109153 47.1242692,40.6169583 Z M10.2839359,92.9079582 C10.2839359,92.9079582 9.50570784,90.6446108 8.37305174,90.1677855 C7.23787303,89.6909602 6.16323718,89.6909602 6.16323718,89.6909602 L5.68646211,89.6909602 L4.97003821,89.0971303 L5.2677073,88.6794364 C5.2677073,88.6794364 6.40162471,89.3349139 7.35769745,89.3349139 C8.31250888,89.3349139 9.56625071,89.809223 10.2233931,90.9427838 C10.8805354,92.0738285 10.9410783,92.134218 10.9410783,92.134218 L10.2839359,92.9079582 Z M152.370472,14.2846285 C151.9164,11.1984744 149.342067,9.65980071 146.393125,10.6499366 C144.497377,11.2865424 143.147776,12.6125947 142.123592,14.2733054 C140.929132,16.2120594 140.655428,18.355886 140.823182,20.5814899 C141.079228,23.1128157 140.601191,25.495684 139.358801,27.7149974 C139.162037,28.0660112 138.964011,28.4182832 138.767247,28.7692971 C136.818524,28.3239246 134.539337,28.2434053 132.704131,28.2119525 L132.704131,28.4925119 C132.620885,28.4925119 132.397633,28.515158 131.830044,28.6057422 C130.596483,28.8045243 130.038984,29.6789136 129.680772,30.233742 C129.321299,30.7885703 127.888451,30.4715256 126.217216,30.7508269 C124.544719,31.0288701 124.26597,31.7422209 122.794021,31.7422209 C121.31955,31.7422209 113.360686,31.6642178 111.250515,31.6642178 C109.140344,31.6642178 105.319837,32.0605238 103.605717,32.0605238 C101.89412,32.0605238 101.061655,31.7032193 99.350058,31.7824805 C97.6359382,31.8629998 95.4488272,33.1726967 94.7715039,33.2519579 C94.0929193,33.3324772 94.6504181,32.8141342 91.5866969,32.4178282 C88.5229757,32.0215222 87.8040292,35.0774816 87.0485047,34.24461 C86.2929802,33.4104803 85.6547575,33.9665668 85.6547575,33.5702608 C85.6547575,33.1739548 84.4628198,32.6153521 84.1437085,32.6958714 C83.8233358,32.7738745 83.7438733,32.5763506 83.3465607,31.5849566 C82.9479869,30.5923045 81.3574754,29.1618287 80.4001413,28.5667407 C79.4453299,27.9716527 77.893919,28.6460019 76.2617842,29.1618287 C74.6296495,29.6789136 69.1366458,29.3606107 68.2587743,29.5593928 C67.3846867,29.7581748 66.6279009,29.1228271 67.1046759,28.6460019 C67.5839736,28.1679185 69.1757464,26.3826545 70.0914573,25.5095232 C71.0084294,24.636392 70.689318,23.920525 70.9277056,23.0473937 C71.1660931,22.1730044 71.6844914,22.4523057 72.2016284,22.0950013 C72.7187653,21.7376969 73.1160779,20.9438268 72.9571529,20.1499568 C72.7969665,19.3548286 73.5146517,18.2829153 74.0317887,17.4097841 C74.5489257,16.5366528 74.5880263,14.8281338 74.5880263,14.8281338 C74.5880263,14.8281338 75.3460734,14.8281338 76.4207093,14.3525666 C77.4953451,13.8757413 77.8535571,11.4941312 77.5735463,10.5807403 C77.2947969,9.66860751 75.7042854,8.39665407 74.9058763,7.92108691 C74.1112512,7.44300352 72.8776904,4.70408894 70.8078812,2.44199963 C68.7405946,0.1773941 67.1866611,0.296914948 65.5936269,0.0981329064 C64.0005928,-0.0993910206 61.573833,0.773740224 61.573833,0.773740224 C61.573833,0.773740224 60.7956049,0 59.9618792,0 C59.1256309,0 59.9618792,0 57.6309789,0.654219376 C55.3026012,1.30969687 52.6752931,4.82360978 51.900849,6.13456476 C51.1238822,7.44300352 49.9294219,12.6843072 49.3933653,14.7690024 C48.8560474,16.8536976 50.7063887,18.8792615 50.4074583,19.2956973 C50.1085279,19.7133912 49.3933653,21.0822194 48.7967658,21.0822194 C48.1989051,21.0822194 47.599783,22.2736535 47.0057061,22.2736535 C46.406584,22.2736535 44.1374879,22.334043 43.0641133,22.8096102 C41.9894775,23.2876936 40.6739315,24.6552637 37.6909341,24.9521786 C34.7028914,25.2503517 29.9868545,25.1308308 27.1804405,26.02535 C24.3752877,26.9198692 23.5390394,30.6111762 22.7027911,33.1135653 C21.8678041,35.6146963 22.0456487,45.0832637 21.8072612,46.8697858 C21.5688737,48.656308 19.1206716,51.4568702 17.9867542,53.2433923 C16.8503141,55.0299144 14.6417609,58.1273916 14.5824793,59.7352615 C14.5219365,61.3418733 14.0451614,65.8081787 13.3287375,66.286262 C12.6123136,66.7630873 12.2528403,67.6550903 11.4771349,69.0855661 C10.7014294,70.5147838 9.74661799,70.9916091 9.15001851,72.7768731 C8.55215772,74.5633953 8.49287616,75.5170458 7.89501537,75.9938711 C7.29841589,76.4694383 6.87966108,79.3882632 6.52271044,81.293048 C6.16323718,83.199091 4.67110782,85.4045652 3.77683925,86.5356099 C2.88004806,87.6653964 2.76148495,89.1550036 3.23826002,89.1550036 C3.71629639,89.1550036 5.2677073,89.6318289 4.85021379,89.6318289 C4.43145898,89.6318289 3.59647197,89.5135661 3.1184356,90.6446108 C2.64166053,91.7756554 1.44593895,93.5621776 0.492388831,94.5749595 C-0.463683911,95.5889995 0.431845966,97.0169591 0.252739991,98.5656977 C0.0736340153,100.113178 -0.10421065,101.066829 0.0736340153,101.660659 C0.252739991,102.257005 0.970425201,104.044785 1.14826987,105.057567 C1.32611453,106.069091 2.70094209,105.711786 2.70094209,106.486785 C2.70094209,107.261783 3.71629639,108.273307 4.49200184,107.916002 C5.2677073,107.558698 5.14788288,106.724568 5.32698885,106.664179 C5.50735614,106.606305 5.92484964,106.724568 6.82037952,107.439177 C7.7159094,108.155044 8.67324345,106.724568 8.67324345,105.593524 C8.67324345,104.461221 8.31250888,104.700262 7.7159094,103.807001 C7.11930992,102.912482 6.94020394,102.257005 6.22504135,102.019221 C5.50735614,101.781438 4.91075666,100.173568 4.91075666,100.173568 C4.91075666,100.173568 5.32698885,97.731568 5.38753172,97.2534846 C5.44807458,96.7804337 6.58073068,95.0505267 6.76235928,96.3627397 C6.94020394,97.6711785 6.70181641,98.745608 6.58073068,99.6967423 C6.46090626,100.650393 7.47752187,101.602785 8.37305174,101.602785 C9.26858162,101.602785 9.38840604,100.768656 9.68607513,99.7546156 C9.98374421,98.745608 10.0455484,94.7548698 10.1035686,94.3371759 C10.1641115,93.919482 10.8212538,95.1109161 10.8805354,94.4554386 C10.9410783,93.8012193 13.7474923,91.0623047 14.402112,90.4068272 C15.0605157,89.7513497 17.2097874,87.4276128 17.8669297,86.3569576 C18.5240721,85.2850444 19.1206716,85.1655235 19.06139,85.6423488 C19.0008472,86.1179159 17.3888934,94.0993923 17.1505058,98.0284829 C16.910857,101.96009 15.3581848,110.833569 15.3581848,112.203655 C15.3581848,113.573742 17.5074565,111.906741 17.9262113,111.667699 C18.3437048,111.429915 22.226016,109.882435 23.1202846,109.823303 C24.0170758,109.762914 24.5531324,110.238481 24.3160062,110.95309 C24.0776186,111.667699 24.1356389,123.639913 24.1356389,127.272089 C24.1356389,130.904265 24.6729568,142.993484 24.6729568,144.661743 C24.6729568,146.328745 25.1497319,158.122307 25.1497319,161.934393 C25.1497319,165.745221 23.4797578,167.353091 23.1795661,168.782308 C22.8818971,170.212784 22.5236851,176.524743 23.1795661,178.968001 C23.8379698,181.408742 23.1202846,184.801876 23.0017215,187.006092 C22.8818971,189.210308 20.5535194,190.878568 19.7765526,191.83096 C19.0008472,192.784611 19.4170793,193.380957 19.2985162,194.033918 C19.1812144,194.690654 16.254976,198.381961 15.7769396,199.097828 C15.2989032,199.811179 16.07587,202.132399 16.07587,202.132399 C16.07587,202.132399 16.07587,202.611741 14.7615853,203.921438 C13.4485619,205.232393 12.7914196,205.11413 11.0003598,205.824964 C9.20930006,206.542089 6.64127355,208.625527 4.73165068,208.565137 C2.8195052,208.507264 1.44593895,208.865826 0.850600781,209.757829 C0.252739991,210.652349 0.313282856,211.901656 1.44593895,212.854048 C2.58237898,213.805183 3.77683925,214.284524 9.92572397,213.805183 C16.07587,213.332132 18.2238804,212.616265 19.4170793,212.377223 C20.6128009,212.143214 23.4797578,210.293786 23.4797578,210.293786 L24.0170758,211.067526 L28.7936555,211.067526 C30.3450665,211.067526 32.3732524,209.995613 32.3732524,209.995613 C32.3732524,209.995613 32.554881,209.221873 32.554881,208.328612 C32.554881,207.436609 32.1361262,207.673134 32.1361262,207.673134 C32.1361262,207.673134 32.554881,205.051224 32.6129013,203.562875 C32.6747054,202.075784 32.0163018,200.586177 32.2546893,199.394743 C32.4943382,198.203309 33.8691657,197.130137 35.0623647,194.927179 C36.2555636,192.724221 36.7954042,189.626744 37.2709179,188.020132 C37.7489543,186.411004 40.4973481,181.408742 40.9728619,178.788091 C41.4521595,176.168697 41.4521595,170.153653 41.8103715,168.425004 C42.1673221,166.698871 43.8991003,160.921611 44.4376796,159.252093 C44.9749975,157.587608 45.3306868,151.630438 45.3306868,149.963436 C45.3306868,148.295177 47.1242692,143.292915 47.4799585,141.029568 C47.8394318,138.767478 49.750316,129.535436 49.750316,129.535436 C49.750316,129.535436 50.1085279,129.295137 51.1238822,131.022527 C52.1379752,132.751176 53.1533295,135.609612 55.0629524,140.136307 C56.9750978,144.661743 57.7508033,145.794046 58.1090152,147.998262 C58.4672272,150.20122 59.7815119,158.122307 60.022422,161.457568 C60.2595483,164.792828 61.9913265,168.84144 61.8122205,171.938917 C61.6318532,175.036394 60.735062,178.84848 61.1550781,180.694134 C61.573833,182.541045 62.3495384,184.028136 62.5286444,186.291484 C62.7064891,188.554831 65.7525519,192.545569 65.7525519,193.201047 C65.7525519,193.855266 64.8582834,194.451612 64.7977405,195.164963 C64.738459,195.883346 64.4988101,199.156959 64.4988101,200.826477 C64.4988101,202.490962 64.738459,202.132399 65.3918174,203.32635 C66.050221,204.517784 66.8284491,205.945743 67.3645057,206.66161 C67.9018236,207.376219 68.6195089,207.612745 68.6787904,208.685916 C68.7368107,209.757829 69.8719894,209.878608 69.573059,210.351659 C69.2753899,210.829743 69.573059,212.022435 69.573059,212.022435 L69.1555655,212.143214 C68.7368107,212.260218 68.7973535,213.630305 69.0382637,213.986351 C69.2753899,214.344914 72.2016284,216.013173 72.4387546,215.89491 C72.6784034,215.772873 73.5751946,215.235658 73.6344762,215.89491 C73.695019,216.54913 75.2464299,219.881874 76.9176653,220.180047 C78.5889006,220.479478 86.8290368,220.539868 86.8290368,220.180047 C86.8290368,219.821485 87.0081428,218.692956 87.0081428,218.692956 L86.3510004,218.274004 C86.3510004,218.274004 86.6486695,216.667392 86.4115433,214.524824 C86.1718944,212.377223 82.4712118,211.246178 82.4119303,210.652349 C82.3513874,210.056002 81.8140695,208.565137 80.9765598,207.851786 C80.1428341,207.137177 81.1569271,206.957267 81.396576,205.88787 C81.6337022,204.813441 81.9338939,198.145435 81.9338939,196.117355 C81.9338939,194.094308 81.1569271,189.984049 80.6776294,187.959743 C80.203377,185.935437 81.0371027,178.133871 80.6776294,175.929655 C80.3219401,173.725439 79.7240793,173.964481 79.6660591,172.415742 C79.6042549,170.867004 79.8426424,169.43527 78.708725,168.484135 C77.5735463,167.534259 78.2306887,162.945917 77.5142648,157.884523 C76.7991022,152.821872 75.6639234,149.486611 74.7078507,146.865959 C73.7543006,144.245308 74.8869567,132.98896 74.8869567,130.368308 C74.8869567,127.748914 72.3201915,108.451959 72.6178606,108.509832 C72.916791,108.570222 76.9782081,108.094655 78.052844,106.842831 C79.1274798,105.593524 83.0060071,104.938046 83.0060071,104.938046 C83.0060071,104.938046 85.8124212,107.856871 87.7245667,109.584262 C89.6354508,111.310394 91.4857921,110.594527 91.7834612,109.999439 C92.0849142,109.404351 92.2034773,107.796481 91.3066862,107.081873 C90.4111563,106.367264 89.574908,99.3394379 89.2785002,97.6711785 C88.9783085,96.0054353 88.2631459,89.0367409 87.7245667,86.6551307 C87.1872487,84.2735205 86.8290368,78.8523065 86.1126129,76.8280008 C85.396189,74.802437 84.3215531,71.4671763 84.2622716,69.800175 C84.2017287,68.1319156 83.245656,59.7943929 82.7676196,57.7096977 C82.2921058,55.6250024 81.873351,49.7294794 81.873351,49.7294794 C81.873351,49.7294794 83.4853048,49.6099585 85.7544009,49.7294794 C88.0234971,49.8490002 91.1288415,50.1459152 92.5616893,50.1459152 C93.9945371,50.1459152 97.0406,48.4789139 99.1886104,48.06122 C101.337882,47.6435261 102.354498,48.5380452 104.8027,47.8825678 C107.248379,47.2270903 108.084628,46.8106545 109.101243,46.2746978 C110.114075,45.7387412 120.38492,45.0832637 122.833122,44.9637428 C125.282585,44.8454801 128.028456,42.6412641 128.444689,41.8675238 C128.863443,41.0937836 128.685599,39.3663928 128.685599,39.3663928 L129.819516,39.5437869 C130.279894,39.6167576 131.03668,39.797926 131.862838,39.9866431 C130.992534,41.3667944 130.118446,42.7456875 129.267062,44.1396781 C127.927552,46.3325711 126.720478,48.6110159 125.538631,50.8944931 C125.170329,51.6065857 124.989961,52.4495222 124.895363,53.2521991 C124.848695,53.6472469 125.089605,54.1907523 125.384751,54.4826348 C125.770712,54.8663596 126.328211,54.7367738 126.758317,54.4058898 C127.132926,54.1177817 127.518887,53.8196086 127.814034,53.4572717 C128.360181,52.787955 128.920202,52.1098314 129.337696,51.3599954 C131.116142,48.1669016 132.880715,44.9637428 134.583483,41.7291313 C134.789076,41.3391159 134.988363,40.944068 135.192695,40.5527945 C135.211615,40.5540526 135.236841,40.5565689 135.2545,40.5565689 C136.625543,40.5565689 140.625156,40.6169583 141.520686,40.1992644 C142.417477,39.7828286 142.894252,39.4255242 143.014077,38.7725629 C143.133901,38.1145692 143.313007,37.4012185 143.43157,37.1621768 C143.551395,36.9243932 143.43157,36.0902635 143.252464,35.7920904 C143.073358,35.4951755 143.43157,34.4823936 143.43157,34.1250891 C143.43157,33.7690428 143.252464,32.8141342 143.014077,32.338567 C142.913172,32.1385268 142.977499,31.8881621 143.149037,31.6617016 C142.914433,31.3924651 142.687397,31.1119057 142.480543,30.807442 C142.110979,30.2664529 141.561048,29.8437266 140.900122,29.5078101 C140.920303,29.4700667 140.939222,29.4323232 140.958142,29.3945798 C142.354412,26.7110223 144.459538,24.768494 147.199102,23.4625714 C148.008863,23.0775885 148.775739,22.5353413 149.445495,21.9352208 C151.72342,19.8983339 152.82076,17.3481365 152.370472,14.2846285 Z" id="Fill-1" fill="#FFFFFF"></path>
        </g>
    </g>
</svg>