<?xml version="1.0" encoding="UTF-8"?>
<svg width="39px" height="39px" viewBox="0 0 39 39" version="1.1" xmlns="http://www.w3.org/2000/svg" xmlns:xlink="http://www.w3.org/1999/xlink">
    <!-- Generator: Sketch 49.3 (51167) - http://www.bohemiancoding.com/sketch -->
    <title>svg skull</title>
    <desc>Created with Sketch.</desc>
    <defs></defs>
    <g id="svg-skull" stroke="none" stroke-width="1" fill="none" fill-rule="evenodd">
        <g id="Group-4" transform="translate(8.000000, 7.000000)" stroke="#FFFFFF">
            <path d="M17.92735,24.6796429 C19.1162731,25.0711607 19.6784462,23.6399107 19.8306,23.1626786 C20.3662346,23.0524107 21.7303115,22.65375 21.50385,21.4591071 C21.2229846,19.9778571 18.9849077,20.156875 18.9849077,20.156875 L16.9140231,18.7144643 L15.6485808,19.7988393 L16.9640038,21.9939286 C16.9640038,21.9939286 16.5062154,24.2122321 17.92735,24.6796429 Z" id="Stroke-2"></path>
            <path d="M4.85941346,24.6796429 C3.67004808,25.0711607 3.10831731,23.6399107 2.95616346,23.1626786 C2.41964423,23.0524107 1.05556731,22.65375 1.28202885,21.4591071 C1.56377885,19.9778571 3.80097115,20.156875 3.80097115,20.156875 L5.87274038,18.7144643 L7.13818269,19.7988393 L5.82275962,21.9939286 C5.82275962,21.9939286 6.27966346,24.2122321 4.85941346,24.6796429 Z" id="Stroke-6"></path>
            <path d="M3.82273269,0.290178571 C2.63380962,-0.100892857 2.07252115,1.33035714 1.92036731,1.80714286 C1.38384808,1.91741071 0.0197711538,2.31607143 0.246232692,3.51071429 C0.527982692,4.99196429 2.765175,4.81294643 2.765175,4.81294643 L4.83605962,6.25535714 L6.10150192,5.17142857 L4.78607885,2.97633929 C4.78607885,2.97633929 5.24386731,0.757589286 3.82273269,0.290178571 Z" id="Stroke-10"></path>
            <path d="M19.1341865,0.290178571 C20.3235519,-0.100892857 20.8852827,1.33035714 21.0374365,1.80714286 C21.5730712,1.91741071 22.9380327,2.31607143 22.7106865,3.51071429 C22.4298212,4.99196429 20.1917442,4.81294643 20.1917442,4.81294643 L18.1217442,6.25535714 L16.8554173,5.17142857 L18.1708404,2.97633929 C18.1708404,2.97633929 17.7139365,0.757589286 19.1341865,0.290178571 Z" id="Stroke-14"></path>
            <path d="M14.5530288,16.0494643 C13.4481442,16.0494643 12.5507019,15.1454464 12.5507019,14.0284821 C12.5507019,12.9110714 13.4481442,12.0070536 14.5530288,12.0070536 C15.6605673,12.0070536 16.5553558,12.9110714 16.5553558,14.0284821 C16.5553558,15.1454464 15.6605673,16.0494643 14.5530288,16.0494643 Z M11.9553558,18.6436607 L11.4984519,18.6436607 L11.4670481,18.6436607 L10.9092981,18.6436607 C10.4192212,18.6436607 10.1135865,18.7249107 10.1135865,18.1405357 C10.1135865,17.554375 11.4325481,16.17625 11.4325481,16.17625 C11.4325481,16.17625 12.7528365,17.554375 12.7528365,18.1405357 C12.7528365,18.7249107 12.4449904,18.6436607 11.9553558,18.6436607 Z M8.21299038,16.0494643 C7.10810577,16.0494643 6.21066346,15.1454464 6.21066346,14.0284821 C6.21066346,12.9110714 7.10810577,12.0070536 8.21299038,12.0070536 C9.31964423,12.0070536 10.2153173,12.9110714 10.2153173,14.0284821 C10.2153173,15.1454464 9.31964423,16.0494643 8.21299038,16.0494643 Z M17.5204712,7.32178571 C16.235125,5.81508929 15.2744327,4.51821429 11.3679712,4.47580357 L11.3679712,4.47401786 C11.3370096,4.47401786 11.3056058,4.47580357 11.272875,4.47580357 C11.2419135,4.47580357 11.2105096,4.47401786 11.1777788,4.47401786 L11.1777788,4.47580357 C7.27308654,4.51821429 6.30974038,5.81508929 5.02704808,7.32178571 C3.72179808,8.854375 3.60149038,12.8963393 4.72274038,14.3039286 C5.84575962,15.7133036 5.90635577,18.2539286 5.90635577,18.2539286 C5.90635577,18.2539286 6.72550962,18.4378571 7.909125,19.1119643 C8.97243269,19.7186607 9.34883654,20.9146429 9.41474038,21.1499107 C9.45277885,21.4347321 9.66508654,21.6624107 9.94418269,21.7177679 L9.94418269,20.9789286 C9.94418269,20.8704464 10.0330865,20.7807143 10.1418942,20.7807143 C10.2498173,20.7807143 10.3391635,20.8704464 10.3391635,20.9789286 L10.3391635,21.7307143 L10.6647019,21.7307143 L10.6647019,20.9789286 C10.6647019,20.8704464 10.7544904,20.7807143 10.8632981,20.7807143 C10.9703365,20.7807143 11.0605673,20.8704464 11.0605673,20.9789286 L11.0605673,21.7307143 L11.3715096,21.7307143 L11.3715096,20.9789286 C11.3715096,20.8704464 11.4586442,20.7807143 11.5674519,20.7807143 C11.6771442,20.7807143 11.7642788,20.8704464 11.7642788,20.9789286 L11.7642788,21.7307143 L12.1521827,21.7307143 L12.1521827,20.9789286 C12.1521827,20.8704464 12.2397596,20.7807143 12.3485673,20.7807143 C12.4582596,20.7807143 12.5453942,20.8704464 12.5453942,20.9789286 L12.5453942,21.7266964 C12.8625288,21.6954464 13.1119904,21.4405357 13.1389712,21.1222321 C13.2243365,20.8302679 13.6104712,19.6963393 14.636625,19.1119643 C15.8202404,18.4378571 16.6393942,18.2539286 16.6393942,18.2539286 C16.6393942,18.2539286 16.7013173,15.7133036 17.8230096,14.3039286 C18.9460288,12.8963393 18.8239519,8.854375 17.5204712,7.32178571 Z" id="Stroke-18"></path>
        </g>
    </g>
</svg>